<svg width="405" height="405" viewBox="0 0 405 405" fill="none" xmlns="http://www.w3.org/2000/svg">
<circle cx="202.5" cy="202.5" r="202.5" fill="#0F96E3"/>
<path d="M215.349 86.5C199.772 81.8967 187.516 83.989 174.349 93.5C154.961 107.504 157.613 135.082 157.849 145C159.023 194.309 184.326 224.011 184.326 224.011" stroke="black" stroke-width="11"/>
<rect x="190" y="70" width="40" height="30" rx="15" fill="black"/>
<path d="M281.5 86.5C297.077 81.8967 309.332 83.989 322.5 93.5C341.888 107.504 339.236 135.082 339 145C337.826 194.309 312.522 224.011 312.522 224.011" stroke="black" stroke-width="11"/>
<rect width="40" height="30" rx="15" transform="matrix(-1 0 0 1 306.849 70)" fill="black"/>
<path d="M321.849 228.318C318.099 239.044 297.752 261.536 297.752 261.536C297.752 261.536 265.634 294.447 244.76 293.995C223.886 293.544 192.358 259.08 192.358 259.08C192.358 259.08 175.886 238.476 173.849 227.625L192.874 217C197 226.625 210.057 239.836 210.057 239.836C210.057 239.836 232.606 264.044 246.038 264.335C259.471 264.625 281.982 241.417 281.982 241.417C281.982 241.417 297.752 227.625 303.178 216.385L321.849 228.318Z" fill="black"/>
<path d="M248.349 315C267.231 315 267.834 274.75 267.834 274.75H228.863C228.863 274.75 229.467 315 248.349 315Z" fill="black"/>
<path d="M246.5 306.5C222.505 397.231 141 385.5 155.5 282C163.133 227.521 128.5 175 90.001 163.591" stroke="black" stroke-width="15"/>
<circle cx="72.5" cy="156.5" r="22" stroke="black" stroke-width="11"/>
<circle cx="72.5" cy="156.5" r="9.5" fill="black"/>
<rect x="213.5" y="135.5" width="67" height="67" rx="14.5" stroke="black" stroke-width="9"/>
<path d="M298 155.5C300.485 155.5 302.5 153.485 302.5 151C302.5 148.515 300.485 146.5 298 146.5L298 155.5ZM276 155.5L298 155.5L298 146.5L276 146.5L276 155.5Z" fill="black"/>
<path d="M298 187.5C300.485 187.5 302.5 185.485 302.5 183C302.5 180.515 300.485 178.5 298 178.5L298 187.5ZM276 187.5L298 187.5L298 178.5L276 178.5L276 187.5Z" fill="black"/>
<path d="M298 171.5C300.485 171.5 302.5 169.485 302.5 167C302.5 164.515 300.485 162.5 298 162.5L298 171.5ZM276 171.5L298 171.5L298 162.5L276 162.5L276 171.5Z" fill="black"/>
<path d="M236.5 118C236.5 115.515 234.485 113.5 232 113.5C229.515 113.5 227.5 115.515 227.5 118L236.5 118ZM236.5 140L236.5 118L227.5 118L227.5 140L236.5 140Z" fill="black"/>
<path d="M268.5 118C268.5 115.515 266.485 113.5 264 113.5C261.515 113.5 259.5 115.515 259.5 118L268.5 118ZM268.5 140L268.5 118L259.5 118L259.5 140L268.5 140Z" fill="black"/>
<path d="M252.5 118C252.5 115.515 250.485 113.5 248 113.5C245.515 113.5 243.5 115.515 243.5 118L252.5 118ZM252.5 140L252.5 118L243.5 118L243.5 140L252.5 140Z" fill="black"/>
<path d="M259.5 220C259.5 222.485 261.515 224.5 264 224.5C266.485 224.5 268.5 222.485 268.5 220L259.5 220ZM259.5 198L259.5 220L268.5 220L268.5 198L259.5 198Z" fill="black"/>
<path d="M227.5 220C227.5 222.485 229.515 224.5 232 224.5C234.485 224.5 236.5 222.485 236.5 220L227.5 220ZM227.5 198L227.5 220L236.5 220L236.5 198L227.5 198Z" fill="black"/>
<path d="M243.5 220C243.5 222.485 245.515 224.5 248 224.5C250.485 224.5 252.5 222.485 252.5 220L243.5 220ZM243.5 198L243.5 220L252.5 220L252.5 198L243.5 198Z" fill="black"/>
<path d="M196 155.5C193.515 155.5 191.5 153.485 191.5 151C191.5 148.515 193.515 146.5 196 146.5L196 155.5ZM218 155.5L196 155.5L196 146.5L218 146.5L218 155.5Z" fill="black"/>
<path d="M196 187.5C193.515 187.5 191.5 185.485 191.5 183C191.5 180.515 193.515 178.5 196 178.5L196 187.5ZM218 187.5L196 187.5L196 178.5L218 178.5L218 187.5Z" fill="black"/>
<path d="M196 171.5C193.515 171.5 191.5 169.485 191.5 167C191.5 164.515 193.515 162.5 196 162.5L196 171.5ZM218 171.5L196 171.5L196 162.5L218 162.5L218 171.5Z" fill="black"/>
<path d="M253.188 179.484C253.213 179.632 253.225 179.78 253.225 179.928C253.25 180.051 253.262 180.199 253.262 180.372C253.262 180.668 253.176 180.939 253.003 181.186C252.929 181.309 252.831 181.433 252.707 181.556C252.584 181.655 252.436 181.741 252.263 181.815C251.647 182.16 250.993 182.284 250.302 182.185C249.957 182.086 249.649 181.926 249.377 181.704C249.328 181.655 249.291 181.63 249.266 181.63C249.242 181.605 249.217 181.568 249.192 181.519C249.168 181.494 249.143 181.47 249.118 181.445C249.094 181.396 249.057 181.359 249.007 181.334C248.884 181.211 248.785 181.1 248.711 181.001C248.637 180.878 248.563 180.754 248.489 180.631C248.44 180.508 248.378 180.397 248.304 180.298C248.255 180.175 248.193 180.051 248.119 179.928C248.07 179.829 248.021 179.743 247.971 179.669C247.922 179.57 247.885 179.472 247.86 179.373C247.762 179.151 247.7 178.954 247.675 178.781L246.898 176.968C245.196 176.968 243.494 176.98 241.792 177.005C240.115 177.005 238.425 176.993 236.723 176.968L235.946 178.781C235.897 178.88 235.86 178.978 235.835 179.077C235.835 179.176 235.811 179.274 235.761 179.373C235.712 179.472 235.663 179.57 235.613 179.669C235.589 179.743 235.552 179.829 235.502 179.928C235.428 180.051 235.354 180.175 235.28 180.298C235.231 180.397 235.169 180.508 235.095 180.631C235.046 180.754 234.984 180.878 234.91 181.001C234.836 181.1 234.738 181.211 234.614 181.334C234.565 181.359 234.528 181.396 234.503 181.445C234.479 181.47 234.454 181.494 234.429 181.519C234.405 181.568 234.38 181.605 234.355 181.63C234.331 181.63 234.294 181.655 234.244 181.704C233.973 181.926 233.665 182.086 233.319 182.185C232.629 182.284 231.975 182.16 231.358 181.815C231.186 181.741 231.038 181.655 230.914 181.556C230.791 181.433 230.692 181.309 230.618 181.186C230.446 180.939 230.359 180.668 230.359 180.372C230.359 180.199 230.359 180.051 230.359 179.928C230.384 179.78 230.409 179.632 230.433 179.484C230.483 179.262 230.544 179.04 230.618 178.818C230.692 178.596 230.729 178.485 230.729 178.485L238.425 159.541L238.647 158.949C238.697 158.801 238.758 158.665 238.832 158.542C238.906 158.419 238.968 158.271 239.017 158.098C239.141 157.777 239.276 157.494 239.424 157.247C239.498 157.099 239.585 156.963 239.683 156.84C239.782 156.717 239.881 156.593 239.979 156.47C240.127 156.273 240.337 156.112 240.608 155.989C240.954 155.866 241.348 155.804 241.792 155.804C242.261 155.804 242.668 155.866 243.013 155.989C243.285 156.112 243.494 156.273 243.642 156.47C243.815 156.692 244 156.951 244.197 157.247C244.345 157.494 244.481 157.777 244.604 158.098C244.654 158.271 244.715 158.419 244.789 158.542C244.863 158.665 244.925 158.801 244.974 158.949L245.196 159.541L252.892 178.485C252.892 178.485 252.929 178.596 253.003 178.818C253.077 179.04 253.139 179.262 253.188 179.484ZM244.419 170.419C244.099 169.704 243.766 168.964 243.42 168.199C243.1 167.434 242.754 166.657 242.384 165.868C242.286 165.646 242.187 165.424 242.088 165.202C241.99 164.955 241.891 164.721 241.792 164.499C241.718 164.721 241.632 164.955 241.533 165.202C241.435 165.424 241.336 165.646 241.237 165.868C240.867 166.657 240.51 167.434 240.164 168.199C239.844 168.964 239.523 169.704 239.202 170.419L238.536 172.047H245.085L244.419 170.419ZM257.377 178.078L257.414 175.155L257.451 169.716C257.476 168.927 257.488 168.113 257.488 167.274C257.488 166.435 257.488 165.572 257.488 164.684C257.488 163.796 257.488 163.007 257.488 162.316C257.488 161.625 257.513 160.848 257.562 159.985V159.837C257.587 159.59 257.599 159.344 257.599 159.097C257.624 158.826 257.636 158.554 257.636 158.283C257.661 157.839 257.797 157.358 258.043 156.84C258.216 156.495 258.475 156.199 258.82 155.952C259.215 155.755 259.597 155.656 259.967 155.656C260.165 155.656 260.337 155.668 260.485 155.693C260.658 155.693 260.818 155.705 260.966 155.73C261.287 155.779 261.571 155.927 261.817 156.174C261.965 156.297 262.101 156.495 262.224 156.766C262.274 156.914 262.311 157.062 262.335 157.21C262.385 157.333 262.422 157.469 262.446 157.617C262.471 157.79 262.483 157.95 262.483 158.098C262.508 158.246 262.52 158.394 262.52 158.542C262.52 158.715 262.508 158.875 262.483 159.023C262.483 159.146 262.483 159.282 262.483 159.43V160.059L262.261 179.262V179.632C262.261 179.706 262.249 179.805 262.224 179.928C262.224 180.027 262.212 180.15 262.187 180.298C262.138 180.421 262.089 180.557 262.039 180.705C262.015 180.828 261.978 180.964 261.928 181.112C261.854 181.235 261.768 181.359 261.669 181.482C261.595 181.581 261.497 181.679 261.373 181.778C261.176 181.975 260.855 182.111 260.411 182.185C259.745 182.333 259.116 182.271 258.524 182C258.228 181.803 258.019 181.556 257.895 181.26C257.821 181.186 257.784 181.112 257.784 181.038C257.76 180.989 257.735 180.952 257.71 180.927C257.686 180.902 257.661 180.865 257.636 180.816C257.587 180.693 257.55 180.569 257.525 180.446C257.501 180.298 257.488 180.15 257.488 180.002C257.464 179.879 257.439 179.755 257.414 179.632C257.414 179.509 257.402 179.385 257.377 179.262C257.353 179.065 257.353 178.855 257.377 178.633V178.078Z" fill="black"/>
</svg>
